<?xml version="1.0" encoding="UTF-8"?>
<svg width="88px" height="62px" viewBox="0 0 88 62" version="1.1" xmlns="http://www.w3.org/2000/svg" xmlns:xlink="http://www.w3.org/1999/xlink">
    <!-- Generator: Sketch 52.2 (67145) - http://www.bohemiancoding.com/sketch -->
    <title>logo-2</title>
    <desc>Created with Sketch.</desc>
    <g id="logo-2" stroke="none" stroke-width="1" fill="none" fill-rule="evenodd">
        <g transform="translate(1.000000, 1.000000)">
            <g id="分组" transform="translate(0.000000, 42.038119)" fill="#FFFFFF">
                <path d="M43.4550499,9.0068615 L43.4550499,6.39034307 L40.1180172,6.39034307 L40.1180172,2.81778907 L37.1349122,2.81778907 L37.1349122,13.6864041 C37.1349122,16.2022872 38.7023064,17.7621347 41.1798003,17.7621347 L43.9100998,17.7621347 L43.9100998,15.0952986 L41.0786781,15.0952986 C40.5730671,15.0952986 40.1180172,14.6927573 40.1180172,14.139263 L40.1180172,9.0068615 L43.4550499,9.0068615 Z" id="路径"></path>
                <polygon id="路径" points="15.5453219 17.8124524 15.5453219 0.050317662 15.5453219 0.050317662 18.6801102 0.050317662 18.6801102 17.8124524 18.6801102 17.8124524"></polygon>
                <path d="M34.0001239,5.4343075 L31.1687023,5.4343075 L31.1687023,6.69224905 C30.8147745,6.39034307 30.4102857,6.13875476 30.0057969,5.93748412 C29.1968193,5.58526048 28.3372806,5.38398983 27.3766196,5.38398983 C25.5058589,5.38398983 23.9890258,5.93748412 22.8261205,7.04447268 C21.6632152,8.15146125 21.1070431,9.66099111 21.1070431,11.4724269 C21.1070431,12.3278272 21.2587264,13.0825921 21.562093,13.7870394 C21.8654596,14.4914867 22.3205095,15.1456163 22.8766816,15.7494282 C23.4834148,16.3532402 24.1912703,16.8060991 24.9496868,17.1080051 C25.7081033,17.4099111 26.567642,17.560864 27.3766196,17.560864 C28.3372806,17.560864 29.1968193,17.3595934 29.9552358,17.0576874 C30.3091635,16.8564168 30.7136523,16.6551461 31.0170189,16.4035578 L31.0170189,17.86277 L34.0001239,17.86277 L34.0001239,5.4343075 Z M31.1181412,11.4724269 C31.1181412,12.4787802 30.8147745,13.3341804 30.1574802,13.9379924 C29.5001859,14.592122 28.6912083,14.894028 27.6799863,14.894028 C26.6687642,14.894028 25.8092255,14.592122 25.2024923,13.9379924 C24.545198,13.2838628 24.2418314,12.4787802 24.2418314,11.4724269 C24.2418314,10.4660737 24.545198,9.61067344 25.2024923,9.0068615 C25.8597866,8.35273189 26.6687642,8.05082592 27.6799863,8.05082592 C28.6912083,8.05082592 29.550747,8.35273189 30.1574802,9.0068615 C30.7642134,9.66099111 31.1181412,10.4660737 31.1181412,11.4724269 Z" id="形状" fill-rule="nonzero"></path>
                <path d="M12.9161446,3.77382465 C12.612778,3.01905972 12.1577281,2.36493011 11.601556,1.81143583 C11.0453839,1.25794155 10.3880895,0.805082592 9.62967302,0.50317662 C8.8712565,0.201270648 8.06227888,0 7.20274015,0 L0.0230637443,0 L0.0230637443,17.7621347 L3.10729093,17.7621347 L3.10729093,12.2775095 L7.20274015,12.2775095 C8.06227888,12.2775095 8.8712565,12.1265565 9.62967302,11.7743329 C10.3880895,11.4724269 11.0453839,11.019568 11.601556,10.4660737 C12.1577281,9.91257942 12.612778,9.25844981 12.9161446,8.50368488 C13.2195112,7.74891995 13.4217556,6.94383736 13.4217556,6.0884371 C13.4217556,5.33367217 13.2700723,4.52858958 12.9161446,3.77382465 Z M10.3375284,6.18907243 C10.3375284,7.04447268 10.0341618,7.74891995 9.42742862,8.35273189 C8.8206954,8.95654384 8.06227888,9.25844981 7.25330126,9.25844981 L3.15785204,9.25844981 L3.15785204,3.06937738 L7.25330126,3.06937738 C8.11283998,3.06937738 8.8206954,3.37128335 9.42742862,3.9750953 C10.0341618,4.57890724 10.3375284,5.33367217 10.3375284,6.18907243 Z" id="形状" fill-rule="nonzero"></path>
                <path d="M85.8758141,15.1959339 L75.864716,15.1959339 L75.864716,9.81194409 L85.0162753,9.81194409 L85.0162753,7.19542567 L75.864716,7.19542567 L75.864716,2.61651842 L85.6230085,2.61651842 L85.6230085,0 L73.6905886,0 L72.9321721,0 L72.9321721,11.6233799 L62.5165852,0 L60.1907745,0 L60.1907745,1.61016518 C58.6739415,0.603811944 56.8537418,0 54.8818588,0 C49.7751876,0 45.5786162,3.9750953 45.5786162,8.85590851 C45.5786162,13.7367217 49.7751876,17.711817 54.8818588,17.711817 C59.9885301,17.711817 64.1851015,13.7367217 64.1851015,8.85590851 C64.1851015,8.00050826 64.0334182,7.19542567 63.8311738,6.44066074 L73.6905886,17.711817 L75.2579827,17.711817 L85.9769363,17.711817 L85.9769363,15.1959339 L85.8758141,15.1959339 Z M56.1458864,14.7933926 C51.7470706,15.7997459 47.9044268,11.9252859 48.8650878,7.59796696 C49.3706988,5.38398983 51.1403373,3.62287166 53.3650258,3.11969504 C57.7638416,2.1133418 61.6064853,5.98780178 60.6458244,10.3151207 C60.1402134,12.5290978 58.3705748,14.290216 56.1458864,14.7933926 Z" id="形状" fill-rule="nonzero"></path>
            </g>
            <path d="M44.516833,20.3512071 L48.96621,17.7850064 C49.3201377,17.533418 49.7751876,17.835324 49.7751876,18.288183 L49.7751876,23.2193139 L44.516833,26.2383736 L44.516833,20.3512071 Z" id="路径" fill="#E40065"></path>
            <path d="M28.7417694,10.4386277 L43.7584165,1.78398983 C43.7584165,1.78398983 43.5561721,1.63303685 43.2528055,1.48208386 C43.2022444,1.4317662 43.1516833,1.4317662 43.1011222,1.38144854 C42.8483167,1.23049555 42.5955112,1.07954257 42.2921446,0.878271919 C42.2415835,0.827954257 42.1404613,0.777636595 42.0899002,0.777636595 C41.988778,0.727318933 41.9382169,0.677001271 41.8370947,0.626683609 C41.7359725,0.576365947 41.5842892,0.475730623 41.5337281,0.425412961 C41.483167,0.375095299 41.3820448,0.324777637 41.3820448,0.324777637 C41.3314837,0.324777637 41.2809225,0.274459975 41.2809225,0.274459975 C41.2303614,0.224142313 41.1292392,0.224142313 41.0786781,0.173824651 C40.8258726,0.0731893266 40.6236282,0.0228716645 40.3708227,0.0228716645 C40.2697005,0.0228716645 40.1180172,0.0228716645 40.016895,0.0731893266 C39.9157728,0.123506989 39.7640895,0.123506989 39.6629673,0.173824651 C39.5618451,0.224142313 39.511284,0.274459975 39.4101618,0.324777637 C36.0731291,2.23684879 29.3485026,6.11130877 26.1125921,7.97306226 C25.4552978,8.37560356 25.0002479,8.9794155 25.0002479,9.68386277 C25.0002479,9.68386277 25.0002479,18.0365947 25.0002479,22.8167726 C25.0002479,23.7224905 25.0002479,24.4772554 25.0002479,25.0307497 C25.0002479,25.4836086 25.050809,25.8861499 25.3036145,26.2383736 C25.55642,26.5402795 25.6069811,26.6409149 26.2137143,26.9931385 C27.5283029,27.7982211 29.8541136,29.2071156 31.8259966,30.4147395 L31.8259966,26.7918679 L28.3878417,24.678526 C28.3878417,24.678526 28.3878417,14.5143583 28.3878417,11.0927573 C28.3372806,10.7908513 28.5900861,10.539263 28.7417694,10.4386277 Z" id="路径" fill="#00B7DF"></path>
            <polygon id="路径" fill="#F9BE00" points="53.9211979 7.87242694 50.4324819 5.8094028 50.4324819 5.8094028 46.994327 3.69606099 31.7754355 12.4513342 31.7754355 30.4650572 35.2641515 32.5280813 35.2641515 14.5143583 47.0954492 7.72147395 47.3482547 7.57052097 50.7358485 9.63354511"></polygon>
            <path d="M55.6402754,10.1367217 C55.6402754,9.33163914 55.3369088,8.77814485 54.1234423,8.02337992 L53.9211979,7.87242694 L50.7864096,9.63354511 L38.7528675,16.5270648 L38.7528675,34.5911055 C38.7528675,34.5911055 40.3202616,35.5974587 41.5842892,34.8930114 C44.971883,32.9809403 54.6796144,27.3956798 54.8312977,27.2447268 C55.1852255,26.9931385 55.6908365,26.5402795 55.6908365,25.7855146 C55.6908365,22.01169 55.6402754,13.7092757 55.6402754,10.1367217 Z M52.3032427,24.5778907 L42.1404613,30.4147395 L42.1404613,18.6404066 L52.3032427,12.8035578 L52.3032427,24.5778907 Z" id="形状" fill="#FFFFFF" fill-rule="nonzero"></path>
        </g>
    </g>
</svg>